{"glyphs":{"0":{"ha":882,"x_min":0,"x_max":814,"o":"m 0 678 q 271 949 0 949 l 543 949 q 814 678 814 949 l 814 271 q 543 0 814 0 l 271 0 q 0 271 0 0 l 0 610 l 339 610 l 339 271 l 475 271 l 475 678 l 0 678 z "},"1":{"ha":475,"x_min":0,"x_max":407,"o":"m 0 678 l 68 949 l 407 949 l 407 678 l 0 678 m 407 610 l 407 0 l 68 0 l 68 610 l 407 610 z "},"2":{"ha":882,"x_min":0,"x_max":814,"o":"m 814 610 q 543 339 814 339 l 339 339 l 339 271 l 746 271 l 746 0 l 0 0 l 0 339 q 271 610 0 610 l 814 610 m 68 678 l 68 949 l 543 949 q 814 678 814 949 l 68 678 z "},"3":{"ha":882,"x_min":0,"x_max":814,"o":"m 0 678 l 0 949 l 543 949 q 814 678 814 949 l 0 678 m 804 610 q 678 475 777 524 q 814 271 814 407 q 543 0 814 0 l 0 0 l 0 271 l 475 271 l 475 339 l 203 339 l 203 610 l 804 610 z "},"4":{"ha":949,"x_min":0,"x_max":882,"o":"m 882 610 l 882 339 l 814 339 l 814 0 l 475 0 l 475 339 l 0 339 l 102 949 l 441 949 l 385 610 l 882 610 m 475 678 l 475 949 l 814 949 l 814 678 l 475 678 z "},"5":{"ha":882,"x_min":0,"x_max":814,"o":"m 0 678 l 0 949 l 746 949 l 746 678 l 0 678 m 543 610 q 814 339 814 610 l 814 271 q 543 0 814 0 l 68 0 l 68 271 l 475 271 l 475 339 l 0 339 l 0 610 l 543 610 z "},"6":{"ha":882,"x_min":0,"x_max":814,"o":"m 339 339 l 339 271 l 475 271 l 475 339 l 339 339 m 0 678 q 271 949 0 949 l 678 949 l 678 678 l 0 678 m 543 610 q 814 339 814 610 l 814 271 q 543 0 814 0 l 271 0 q 0 271 0 0 l 0 610 l 543 610 z "},"7":{"ha":814,"x_min":0,"x_max":746,"o":"m 661 610 l 509 0 l 136 0 l 288 610 l 661 610 m 0 678 l 0 949 l 746 949 l 678 678 l 0 678 z "},"8":{"ha":880,"x_min":0,"x_max":812,"o":"m 473 271 l 473 339 l 339 339 l 339 271 l 473 271 m 0 678 q 271 949 0 949 l 541 949 q 812 678 812 949 q 678 475 812 543 q 812 271 812 407 q 541 0 812 0 l 271 0 q 0 271 0 0 q 136 475 0 407 q 9 610 37 524 l 473 610 l 473 678 l 0 678 z "},"9":{"ha":882,"x_min":0,"x_max":814,"o":"m 0 678 q 271 949 0 949 l 543 949 q 814 678 814 949 l 814 271 q 543 0 814 0 l 136 0 l 136 271 l 475 271 l 475 339 l 271 339 q 0 610 0 339 l 475 610 l 475 678 l 0 678 z "},"\u0000":{"ha":0,"x_min":0,"x_max":0,"o":""},"\u001d":{"ha":0,"x_min":0,"x_max":0,"o":""}," ":{"ha":345,"x_min":0,"x_max":0,"o":""}," ":{"ha":345,"x_min":0,"x_max":0,"o":""},"!":{"ha":475,"x_min":0,"x_max":407,"o":"m 68 407 l 0 949 l 407 949 l 339 407 l 68 407 m 203 339 q 323 290 274 339 q 373 170 373 240 q 323 50 373 99 q 203 0 274 0 q 83 50 133 0 q 34 170 34 99 q 83 290 34 240 q 203 339 133 339 z "},"\"":{"ha":678,"x_min":0,"x_max":610,"o":"m 271 949 l 271 543 l 0 543 l 0 949 l 271 949 m 610 949 l 610 543 l 339 543 l 339 949 l 610 949 z "},"#":{"ha":861,"x_min":0,"x_max":793,"o":"m 164 339 l 222 610 l 86 610 l 115 746 l 251 746 l 294 949 l 430 949 l 387 746 l 522 746 l 566 949 l 701 949 l 658 746 l 793 746 l 764 610 l 629 610 l 571 339 l 707 339 l 678 203 l 543 203 l 499 0 l 363 0 l 407 203 l 271 203 l 228 0 l 92 0 l 136 203 l 0 203 l 28 339 l 164 339 m 357 610 l 300 339 l 435 339 l 493 610 l 357 610 z "},"$":{"ha":882,"x_min":0,"x_max":814,"o":"m 0 678 q 237 948 0 932 l 237 1017 l 509 1017 l 509 949 l 746 949 l 746 678 l 0 678 m 543 610 q 814 339 814 610 l 814 271 q 543 0 814 0 l 509 0 l 509 -68 l 237 -68 l 237 0 l 68 0 l 68 271 l 475 271 l 475 339 l 271 339 q 0 610 0 339 l 543 610 z "},"%":{"ha":1017,"x_min":0,"x_max":949,"o":"m 916 949 l 340 0 l 34 0 l 612 949 l 916 949 m 780 339 q 900 290 850 339 q 949 170 949 240 q 900 50 949 99 q 780 0 850 0 q 660 50 709 0 q 610 170 610 99 q 660 290 610 240 q 780 339 709 339 m 170 949 q 290 900 240 949 q 339 780 339 850 q 290 660 339 709 q 170 610 240 610 q 50 660 99 610 q 0 780 0 709 q 50 900 0 850 q 170 949 99 949 z "},"&":{"ha":1017,"x_min":0,"x_max":949,"o":"m 473 271 l 473 339 l 339 339 l 339 271 l 473 271 m 0 678 q 271 949 0 949 l 541 949 q 812 678 812 949 q 803 610 812 642 l 949 610 l 949 339 l 803 339 q 812 271 812 308 q 541 0 812 0 l 271 0 q 0 271 0 0 q 136 475 0 407 q 9 610 37 524 l 473 610 l 473 678 l 0 678 z "},"'":{"ha":339,"x_min":0,"x_max":271,"o":"m 271 949 l 271 543 l 0 543 l 0 949 l 271 949 z "},"(":{"ha":543,"x_min":0,"x_max":475,"o":"m 0 610 q 475 1085 0 1085 l 475 814 q 271 610 271 814 l 271 339 q 475 136 271 136 l 475 -136 q 0 339 0 -136 l 0 610 z "},")":{"ha":543,"x_min":0,"x_max":475,"o":"m 475 339 q 0 -136 475 -136 l 0 136 q 203 339 203 136 l 203 610 q 0 814 203 814 l 0 1085 q 475 610 475 1085 l 475 339 z "},"*":{"ha":746,"x_min":0,"x_max":678,"o":"m 505 678 l 678 678 l 678 543 l 501 543 l 625 416 l 528 321 l 407 445 l 407 271 l 271 271 l 271 448 l 145 324 l 50 421 l 174 543 l 0 543 l 0 678 l 177 678 l 53 804 l 150 900 l 271 776 l 271 949 l 407 949 l 407 772 l 533 897 l 629 800 l 505 678 z "},"+":{"ha":746,"x_min":0,"x_max":678,"o":"m 475 610 l 678 610 l 678 339 l 475 339 l 475 136 l 203 136 l 203 339 l 0 339 l 0 610 l 203 610 l 203 814 l 475 814 l 475 610 z "},",":{"ha":475,"x_min":0,"x_max":407,"o":"m 407 339 l 271 -68 l 0 -68 l 68 339 l 407 339 z "},"-":{"ha":543,"x_min":0,"x_max":475,"o":"m 475 610 l 475 339 l 0 339 l 0 610 l 475 610 z "},"­":{"ha":543,"x_min":0,"x_max":475,"o":"m 475 610 l 475 339 l 0 339 l 0 610 l 475 610 z "},".":{"ha":407,"x_min":0,"x_max":339,"o":"m 170 339 q 290 290 240 339 q 339 170 339 240 q 290 50 339 99 q 170 0 240 0 q 50 50 99 0 q 0 170 0 99 q 50 290 0 240 q 170 339 99 339 z "},"/":{"ha":960,"x_min":0,"x_max":892,"o":"m 892 1085 l 283 -136 l 0 -136 l 616 1085 l 892 1085 z "},":":{"ha":407,"x_min":0,"x_max":339,"o":"m 170 339 q 290 290 240 339 q 339 170 339 240 q 290 50 339 99 q 170 0 240 0 q 50 50 99 0 q 0 170 0 99 q 50 290 0 240 q 170 339 99 339 m 170 746 q 290 696 240 746 q 339 576 339 647 q 290 456 339 506 q 170 407 240 407 q 50 456 99 407 q 0 576 0 506 q 50 696 0 647 q 170 746 99 746 z "},";":{"ha":543,"x_min":0,"x_max":475,"o":"m 475 339 l 271 -68 l 0 -68 l 136 339 l 475 339 m 305 746 q 425 696 376 746 q 475 576 475 647 q 425 456 475 506 q 305 407 376 407 q 185 456 235 407 q 136 576 136 506 q 185 696 136 647 q 305 746 235 746 z "},";":{"ha":543,"x_min":0,"x_max":475,"o":"m 475 339 l 271 -68 l 0 -68 l 136 339 l 475 339 m 305 746 q 425 696 376 746 q 475 576 475 647 q 425 456 475 506 q 305 407 376 407 q 185 456 235 407 q 136 576 136 506 q 185 696 136 647 q 305 746 235 746 z "},"<":{"ha":814,"x_min":0,"x_max":746,"o":"m 0 610 l 746 949 l 746 678 l 271 475 l 746 271 l 746 0 l 0 339 l 0 610 z "},"=":{"ha":746,"x_min":0,"x_max":678,"o":"m 678 814 l 678 543 l 0 543 l 0 814 l 678 814 m 678 407 l 678 136 l 0 136 l 0 407 l 678 407 z "},">":{"ha":814,"x_min":0,"x_max":746,"o":"m 746 339 l 0 0 l 0 271 l 475 475 l 0 678 l 0 949 l 746 610 l 746 339 z "},"?":{"ha":814,"x_min":0,"x_max":746,"o":"m 136 610 l 339 610 q 407 638 407 610 q 339 678 407 678 l 0 678 l 0 949 l 339 949 q 746 638 746 949 q 407 410 746 437 l 407 339 l 136 339 l 136 610 m 271 271 q 367 232 328 271 q 407 136 407 192 q 367 40 407 79 q 271 0 328 0 q 175 40 215 0 q 136 136 136 79 q 175 232 136 192 q 271 271 215 271 z "},"@":{"ha":1024,"x_min":0,"x_max":956,"o":"m 488 288 q 352 243 435 243 q 239 288 275 243 q 213 365 213 319 q 218 409 213 385 q 345 625 243 531 q 566 719 447 719 q 733 667 627 719 q 644 469 657 507 q 625 404 631 431 q 623 388 623 395 q 632 374 623 374 q 728 437 682 374 q 792 587 774 500 q 804 663 804 629 q 769 757 804 722 q 614 813 713 813 q 328 694 456 813 q 163 395 201 576 q 155 323 155 357 q 190 206 155 254 q 350 135 242 135 q 467 155 407 135 q 581 222 528 174 l 643 111 q 478 28 570 57 q 309 0 387 0 q 58 106 141 0 q 0 286 0 180 q 11 382 0 331 q 244 786 62 624 q 655 948 426 948 q 900 857 820 948 q 956 695 956 792 q 946 607 956 654 q 818 358 916 467 q 597 250 720 250 q 488 288 514 250 m 537 601 q 441 543 490 601 q 377 416 392 484 q 375 397 375 406 q 398 372 375 372 q 459 399 430 372 q 508 473 488 426 q 556 595 527 519 q 537 601 551 601 z "},"A":{"ha":882,"x_min":0,"x_max":814,"o":"m 407 509 q 475 610 475 543 l 475 678 l 0 678 q 271 949 0 949 l 543 949 q 814 678 814 949 l 814 0 l 475 0 l 475 203 l 339 136 l 339 0 l 0 0 l 0 610 l 339 610 l 339 475 l 407 509 z "},"B":{"ha":882,"x_min":0,"x_max":814,"o":"m 339 339 l 339 271 l 475 271 l 475 339 l 339 339 m 0 678 l 0 949 l 543 949 q 814 678 814 949 q 678 475 814 543 q 814 271 814 407 q 543 0 814 0 l 0 0 l 0 610 l 475 610 l 475 678 l 0 678 z "},"C":{"ha":746,"x_min":0,"x_max":678,"o":"m 0 678 q 271 949 0 949 l 678 949 l 678 678 l 0 678 m 339 610 l 339 271 l 678 271 l 678 0 l 271 0 q 0 271 0 0 l 0 610 l 339 610 z "},"D":{"ha":882,"x_min":0,"x_max":814,"o":"m 0 678 l 0 949 l 543 949 q 814 678 814 949 l 814 271 q 543 0 814 0 l 0 0 l 0 610 l 339 610 l 339 271 l 475 271 l 475 678 l 0 678 z "},"E":{"ha":746,"x_min":0,"x_max":678,"o":"m 0 678 l 0 949 l 678 949 l 678 678 l 0 678 m 543 610 l 543 339 l 339 339 l 339 271 l 678 271 l 678 0 l 0 0 l 0 610 l 543 610 z "},"F":{"ha":746,"x_min":0,"x_max":678,"o":"m 0 678 l 0 949 l 678 949 l 678 678 l 0 678 m 678 610 l 678 339 l 339 339 l 339 0 l 0 0 l 0 610 l 678 610 z "},"G":{"ha":882,"x_min":0,"x_max":814,"o":"m 339 610 l 339 271 l 475 271 l 475 339 l 407 339 l 407 610 l 814 610 l 814 0 l 271 0 q 0 271 0 0 l 0 610 l 339 610 m 0 678 q 271 949 0 949 l 678 949 l 678 678 l 0 678 z "},"H":{"ha":882,"x_min":0,"x_max":814,"o":"m 0 678 l 0 949 l 339 949 l 339 678 l 0 678 m 475 610 l 475 949 l 814 949 l 814 0 l 475 0 l 475 339 l 339 339 l 339 0 l 0 0 l 0 610 l 475 610 z "},"I":{"ha":407,"x_min":0,"x_max":339,"o":"m 0 678 l 0 949 l 339 949 l 339 678 l 0 678 m 339 610 l 339 0 l 0 0 l 0 610 l 339 610 z "},"J":{"ha":543,"x_min":0,"x_max":475,"o":"m 475 610 l 475 271 q 203 0 475 0 l 0 0 l 0 271 l 136 271 l 136 610 l 475 610 m 136 678 l 136 949 l 475 949 l 475 678 l 136 678 z "},"K":{"ha":882,"x_min":0,"x_max":882,"o":"m 475 949 l 814 949 l 814 543 q 623 259 814 360 l 882 0 l 475 0 l 339 136 l 339 0 l 0 0 l 0 610 l 339 610 l 339 475 l 407 509 q 475 610 475 543 l 475 949 m 339 678 l 0 678 l 0 949 l 339 949 l 339 678 z "},"L":{"ha":678,"x_min":0,"x_max":610,"o":"m 0 678 l 0 949 l 339 949 l 339 678 l 0 678 m 339 610 l 339 271 l 610 271 l 610 0 l 0 0 l 0 610 l 339 610 z "},"M":{"ha":1356,"x_min":0,"x_max":1289,"o":"m 0 678 q 271 949 0 949 l 407 949 q 644 814 600 949 q 882 949 689 949 l 1017 949 q 1289 678 1289 949 l 1289 0 l 949 0 l 949 678 l 814 678 l 814 0 l 475 0 l 475 678 l 0 678 m 339 0 l 0 0 l 0 610 l 339 610 l 339 0 z "},"N":{"ha":882,"x_min":0,"x_max":814,"o":"m 0 678 q 271 949 0 949 l 543 949 q 814 678 814 949 l 814 0 l 475 0 l 475 678 l 0 678 m 339 610 l 339 0 l 0 0 l 0 610 l 339 610 z "},"O":{"ha":882,"x_min":0,"x_max":814,"o":"m 0 678 q 271 949 0 949 l 543 949 q 814 678 814 949 l 814 271 q 543 0 814 0 l 271 0 q 0 271 0 0 l 0 610 l 339 610 l 339 271 l 475 271 l 475 678 l 0 678 z "},"P":{"ha":882,"x_min":0,"x_max":814,"o":"m 0 678 l 0 949 l 543 949 q 814 678 814 949 l 814 543 q 576 237 814 339 l 339 136 l 339 0 l 0 0 l 0 610 l 339 610 l 339 475 l 407 509 q 475 610 475 543 l 475 678 l 0 678 z "},"Q":{"ha":882,"x_min":0,"x_max":882,"o":"m 339 0 l 271 0 q 0 271 0 0 l 0 610 l 339 610 l 339 271 l 475 271 l 475 678 l 0 678 q 271 949 0 949 l 543 949 q 814 678 814 949 l 814 271 q 708 38 814 102 l 882 -136 l 475 -136 l 339 0 z "},"R":{"ha":882,"x_min":0,"x_max":882,"o":"m 339 136 l 339 0 l 0 0 l 0 610 l 339 610 l 339 475 l 407 509 q 475 610 475 543 l 475 678 l 0 678 l 0 949 l 543 949 q 814 678 814 949 l 814 543 q 623 259 814 360 l 882 0 l 475 0 l 339 136 z "},"S":{"ha":882,"x_min":0,"x_max":814,"o":"m 0 678 q 271 949 0 949 l 746 949 l 746 678 l 0 678 m 543 610 q 814 339 814 610 l 814 271 q 543 0 814 0 l 68 0 l 68 271 l 475 271 l 475 339 l 271 339 q 0 610 0 339 l 543 610 z "},"T":{"ha":814,"x_min":0,"x_max":746,"o":"m 0 678 l 0 949 l 746 949 l 746 678 l 0 678 m 543 610 l 543 0 l 203 0 l 203 610 l 543 610 z "},"U":{"ha":882,"x_min":0,"x_max":814,"o":"m 339 610 l 339 271 l 475 271 l 475 949 l 814 949 l 814 271 q 543 0 814 0 l 271 0 q 0 271 0 0 l 0 610 l 339 610 m 0 678 l 0 949 l 339 949 l 339 678 l 0 678 z "},"V":{"ha":882,"x_min":-68,"x_max":882,"o":"m 356 610 l 407 407 l 543 949 l 882 949 l 610 0 l 203 0 l 29 610 l 356 610 m 9 678 l -68 949 l 271 949 l 339 678 l 9 678 z "},"W":{"ha":1356,"x_min":0,"x_max":1289,"o":"m 0 678 l 0 949 l 339 949 l 339 678 l 0 678 m 339 271 l 475 271 l 475 949 l 814 949 l 814 271 l 949 271 l 949 949 l 1289 949 l 1289 271 q 1017 0 1289 0 l 882 0 q 644 136 689 0 q 407 0 600 0 l 271 0 q 0 271 0 0 l 0 610 l 339 610 l 339 271 z "},"X":{"ha":882,"x_min":-68,"x_max":882,"o":"m 675 610 l 593 475 l 882 0 l 509 0 l 407 168 l 305 0 l -68 0 l 220 475 l 138 610 l 675 610 m 97 678 l -68 949 l 305 949 l 407 782 l 509 949 l 882 949 l 717 678 l 97 678 z "},"Y":{"ha":882,"x_min":0,"x_max":814,"o":"m 0 678 l 0 949 l 339 949 l 339 678 l 0 678 m 814 0 l 475 0 l 475 136 l 191 259 q 0 543 0 360 l 0 610 l 339 610 q 407 509 339 543 l 475 475 l 475 949 l 814 949 l 814 0 z "},"Z":{"ha":814,"x_min":0,"x_max":746,"o":"m 0 678 l 0 949 l 746 949 l 746 678 l 0 678 m 690 610 l 407 271 l 746 271 l 746 0 l 0 0 l 0 271 l 283 610 l 690 610 z "},"[":{"ha":543,"x_min":0,"x_max":475,"o":"m 475 1085 l 475 814 l 271 814 l 271 136 l 475 136 l 475 -136 l 0 -136 l 0 1085 l 475 1085 z "},"\\":{"ha":960,"x_min":0,"x_max":892,"o":"m 275 1085 l 892 -136 l 608 -136 l 0 1085 l 275 1085 z "},"]":{"ha":543,"x_min":0,"x_max":475,"o":"m 475 1085 l 475 -136 l 0 -136 l 0 136 l 203 136 l 203 814 l 0 814 l 0 1085 l 475 1085 z "},"^":{"ha":746,"x_min":0,"x_max":678,"o":"m 543 949 l 678 610 l 407 610 l 339 780 l 271 610 l 0 610 l 136 949 l 543 949 z "},"_":{"ha":882,"x_min":0,"x_max":814,"o":"m 814 271 l 814 0 l 0 0 l 0 271 l 814 271 z "},"`":{"ha":475,"x_min":0,"x_max":407,"o":"m 0 1356 l 271 1356 l 407 1017 l 136 1017 l 0 1356 z "},"a":{"ha":882,"x_min":0,"x_max":814,"o":"m 407 509 q 475 610 475 543 l 475 678 l 0 678 q 271 949 0 949 l 543 949 q 814 678 814 949 l 814 0 l 475 0 l 475 203 l 339 136 l 339 0 l 0 0 l 0 610 l 339 610 l 339 475 l 407 509 z "},"b":{"ha":882,"x_min":0,"x_max":814,"o":"m 339 339 l 339 271 l 475 271 l 475 339 l 339 339 m 0 678 l 0 949 l 543 949 q 814 678 814 949 q 678 475 814 543 q 814 271 814 407 q 543 0 814 0 l 0 0 l 0 610 l 475 610 l 475 678 l 0 678 z "},"c":{"ha":746,"x_min":0,"x_max":678,"o":"m 0 678 q 271 949 0 949 l 678 949 l 678 678 l 0 678 m 339 610 l 339 271 l 678 271 l 678 0 l 271 0 q 0 271 0 0 l 0 610 l 339 610 z "},"d":{"ha":882,"x_min":0,"x_max":814,"o":"m 0 678 l 0 949 l 543 949 q 814 678 814 949 l 814 271 q 543 0 814 0 l 0 0 l 0 610 l 339 610 l 339 271 l 475 271 l 475 678 l 0 678 z "},"e":{"ha":746,"x_min":0,"x_max":678,"o":"m 0 678 l 0 949 l 678 949 l 678 678 l 0 678 m 543 610 l 543 339 l 339 339 l 339 271 l 678 271 l 678 0 l 0 0 l 0 610 l 543 610 z "},"f":{"ha":746,"x_min":0,"x_max":678,"o":"m 0 678 l 0 949 l 678 949 l 678 678 l 0 678 m 678 610 l 678 339 l 339 339 l 339 0 l 0 0 l 0 610 l 678 610 z "},"g":{"ha":882,"x_min":0,"x_max":814,"o":"m 339 610 l 339 271 l 475 271 l 475 339 l 407 339 l 407 610 l 814 610 l 814 0 l 271 0 q 0 271 0 0 l 0 610 l 339 610 m 0 678 q 271 949 0 949 l 678 949 l 678 678 l 0 678 z "},"h":{"ha":882,"x_min":0,"x_max":814,"o":"m 0 678 l 0 949 l 339 949 l 339 678 l 0 678 m 475 610 l 475 949 l 814 949 l 814 0 l 475 0 l 475 339 l 339 339 l 339 0 l 0 0 l 0 610 l 475 610 z "},"i":{"ha":407,"x_min":0,"x_max":339,"o":"m 0 678 l 0 949 l 339 949 l 339 678 l 0 678 m 339 610 l 339 0 l 0 0 l 0 610 l 339 610 z "},"j":{"ha":543,"x_min":0,"x_max":475,"o":"m 475 610 l 475 271 q 203 0 475 0 l 0 0 l 0 271 l 136 271 l 136 610 l 475 610 m 136 678 l 136 949 l 475 949 l 475 678 l 136 678 z "},"k":{"ha":882,"x_min":0,"x_max":882,"o":"m 475 949 l 814 949 l 814 543 q 623 259 814 360 l 882 0 l 475 0 l 339 136 l 339 0 l 0 0 l 0 610 l 339 610 l 339 475 l 407 509 q 475 610 475 543 l 475 949 m 339 678 l 0 678 l 0 949 l 339 949 l 339 678 z "},"l":{"ha":678,"x_min":0,"x_max":610,"o":"m 0 678 l 0 949 l 339 949 l 339 678 l 0 678 m 339 610 l 339 271 l 610 271 l 610 0 l 0 0 l 0 610 l 339 610 z "},"m":{"ha":1356,"x_min":0,"x_max":1289,"o":"m 0 678 q 271 949 0 949 l 407 949 q 644 814 600 949 q 882 949 689 949 l 1017 949 q 1289 678 1289 949 l 1289 0 l 949 0 l 949 678 l 814 678 l 814 0 l 475 0 l 475 678 l 0 678 m 339 0 l 0 0 l 0 610 l 339 610 l 339 0 z "},"n":{"ha":882,"x_min":0,"x_max":814,"o":"m 0 678 q 271 949 0 949 l 543 949 q 814 678 814 949 l 814 0 l 475 0 l 475 678 l 0 678 m 339 610 l 339 0 l 0 0 l 0 610 l 339 610 z "},"o":{"ha":882,"x_min":0,"x_max":814,"o":"m 0 678 q 271 949 0 949 l 543 949 q 814 678 814 949 l 814 271 q 543 0 814 0 l 271 0 q 0 271 0 0 l 0 610 l 339 610 l 339 271 l 475 271 l 475 678 l 0 678 z "},"p":{"ha":882,"x_min":0,"x_max":814,"o":"m 0 678 l 0 949 l 543 949 q 814 678 814 949 l 814 543 q 576 237 814 339 l 339 136 l 339 0 l 0 0 l 0 610 l 339 610 l 339 475 l 407 509 q 475 610 475 543 l 475 678 l 0 678 z "},"q":{"ha":882,"x_min":0,"x_max":882,"o":"m 339 0 l 271 0 q 0 271 0 0 l 0 610 l 339 610 l 339 271 l 475 271 l 475 678 l 0 678 q 271 949 0 949 l 543 949 q 814 678 814 949 l 814 271 q 708 38 814 102 l 882 -136 l 475 -136 l 339 0 z "},"r":{"ha":882,"x_min":0,"x_max":882,"o":"m 339 136 l 339 0 l 0 0 l 0 610 l 339 610 l 339 475 l 407 509 q 475 610 475 543 l 475 678 l 0 678 l 0 949 l 543 949 q 814 678 814 949 l 814 543 q 623 259 814 360 l 882 0 l 475 0 l 339 136 z "},"s":{"ha":882,"x_min":0,"x_max":814,"o":"m 0 678 q 271 949 0 949 l 746 949 l 746 678 l 0 678 m 543 610 q 814 339 814 610 l 814 271 q 543 0 814 0 l 68 0 l 68 271 l 475 271 l 475 339 l 271 339 q 0 610 0 339 l 543 610 z "},"t":{"ha":814,"x_min":0,"x_max":746,"o":"m 0 678 l 0 949 l 746 949 l 746 678 l 0 678 m 543 610 l 543 0 l 203 0 l 203 610 l 543 610 z "},"u":{"ha":882,"x_min":0,"x_max":814,"o":"m 339 610 l 339 271 l 475 271 l 475 949 l 814 949 l 814 271 q 543 0 814 0 l 271 0 q 0 271 0 0 l 0 610 l 339 610 m 0 678 l 0 949 l 339 949 l 339 678 l 0 678 z "},"v":{"ha":882,"x_min":-68,"x_max":882,"o":"m 356 610 l 407 407 l 543 949 l 882 949 l 610 0 l 203 0 l 29 610 l 356 610 m 9 678 l -68 949 l 271 949 l 339 678 l 9 678 z "},"w":{"ha":1356,"x_min":0,"x_max":1289,"o":"m 0 678 l 0 949 l 339 949 l 339 678 l 0 678 m 339 271 l 475 271 l 475 949 l 814 949 l 814 271 l 949 271 l 949 949 l 1289 949 l 1289 271 q 1017 0 1289 0 l 882 0 q 644 136 689 0 q 407 0 600 0 l 271 0 q 0 271 0 0 l 0 610 l 339 610 l 339 271 z "},"x":{"ha":882,"x_min":-68,"x_max":882,"o":"m 675 610 l 593 475 l 882 0 l 509 0 l 407 168 l 305 0 l -68 0 l 220 475 l 138 610 l 675 610 m 97 678 l -68 949 l 305 949 l 407 782 l 509 949 l 882 949 l 717 678 l 97 678 z "},"y":{"ha":882,"x_min":0,"x_max":814,"o":"m 0 678 l 0 949 l 339 949 l 339 678 l 0 678 m 814 0 l 475 0 l 475 136 l 191 259 q 0 543 0 360 l 0 610 l 339 610 q 407 509 339 543 l 475 475 l 475 949 l 814 949 l 814 0 z "},"z":{"ha":814,"x_min":0,"x_max":746,"o":"m 0 678 l 0 949 l 746 949 l 746 678 l 0 678 m 690 610 l 407 271 l 746 271 l 746 0 l 0 0 l 0 271 l 283 610 l 690 610 z "},"{":{"ha":678,"x_min":0,"x_max":610,"o":"m 136 610 q 610 1085 136 1085 l 610 814 q 407 610 407 814 l 407 339 q 610 136 407 136 l 610 -136 q 136 339 136 -136 l 0 339 l 0 610 l 136 610 z "},"|":{"ha":339,"x_min":0,"x_max":271,"o":"m 271 1085 l 271 -136 l 0 -136 l 0 1085 l 271 1085 z "},"}":{"ha":678,"x_min":0,"x_max":610,"o":"m 475 339 q 0 -136 475 -136 l 0 136 q 203 339 203 136 l 203 610 q 0 814 203 814 l 0 1085 q 475 610 475 1085 l 610 610 l 610 339 l 475 339 z "},"~":{"ha":746,"x_min":0,"x_max":678,"o":"m 0 294 l 0 565 q 186 599 102 599 q 339 565 271 599 q 437 543 385 543 q 678 633 543 543 l 678 361 q 437 271 543 271 q 339 294 385 271 q 186 328 271 328 q 0 294 102 328 z "},"£":{"ha":949,"x_min":0,"x_max":882,"o":"m 475 610 l 475 339 l 407 339 l 407 271 l 882 271 l 882 0 l 68 0 l 68 339 l 0 339 l 0 610 l 475 610 m 68 678 q 339 949 68 949 l 610 949 q 882 678 882 949 l 882 610 l 543 610 l 543 678 l 68 678 z "},"¥":{"ha":1017,"x_min":0,"x_max":949,"o":"m 759 610 l 645 407 l 780 407 l 780 136 l 645 136 l 645 0 l 306 0 l 306 136 l 170 136 l 170 407 l 306 407 l 191 610 l 759 610 m 153 678 l 0 949 l 339 949 l 475 746 l 610 949 l 949 949 l 798 678 l 153 678 z "},"´":{"ha":475,"x_min":0,"x_max":407,"o":"m 271 1017 l 0 1017 l 136 1356 l 407 1356 l 271 1017 z "},"÷":{"ha":746,"x_min":0,"x_max":678,"o":"m 678 678 l 678 407 l 0 407 l 0 678 l 678 678 m 339 339 q 459 290 410 339 q 509 170 509 240 q 459 50 509 99 q 339 0 410 0 q 219 50 269 0 q 170 170 170 99 q 219 290 170 240 q 339 339 269 339 m 339 1085 q 459 1036 410 1085 q 509 916 509 986 q 459 795 509 845 q 339 746 410 746 q 219 795 269 746 q 170 916 170 845 q 219 1036 170 986 q 339 1085 269 1085 z "},"ˆ":{"ha":746,"x_min":0,"x_max":678,"o":"m 475 1289 l 678 1017 l 407 1017 l 339 1119 l 271 1017 l 0 1017 l 203 1289 l 475 1289 z "},"˜":{"ha":678,"x_min":68,"x_max":610,"o":"m 68 1040 l 68 1221 q 217 1255 149 1255 q 339 1221 285 1255 q 418 1198 376 1198 q 610 1289 502 1198 l 610 1107 q 418 1017 502 1017 q 339 1040 376 1017 q 217 1074 285 1074 q 68 1040 149 1074 z "},"˝":{"ha":845,"x_min":0,"x_max":777,"o":"m 271 610 l 0 610 l 136 949 l 407 949 l 271 610 m 642 610 l 370 610 l 506 949 l 777 949 l 642 610 z "},"–":{"ha":746,"x_min":0,"x_max":678,"o":"m 678 610 l 678 339 l 0 339 l 0 610 l 678 610 z "},"—":{"ha":1356,"x_min":0,"x_max":1288,"o":"m 1288 610 l 1288 339 l 0 339 l 0 610 l 1288 610 z "},"‘":{"ha":339,"x_min":0,"x_max":271,"o":"m 271 949 l 271 543 l 0 543 l 0 949 l 271 949 z "},"’":{"ha":339,"x_min":0,"x_max":271,"o":"m 271 949 l 271 543 l 0 543 l 0 949 l 271 949 z "},"‚":{"ha":339,"x_min":0,"x_max":271,"o":"m 271 136 l 271 -271 l 0 -271 l 0 136 l 271 136 z "},"“":{"ha":678,"x_min":0,"x_max":610,"o":"m 271 949 l 271 543 l 0 543 l 0 949 l 271 949 m 610 949 l 610 543 l 339 543 l 339 949 l 610 949 z "},"”":{"ha":678,"x_min":0,"x_max":610,"o":"m 271 949 l 271 543 l 0 543 l 0 949 l 271 949 m 610 949 l 610 543 l 339 543 l 339 949 l 610 949 z "},"„":{"ha":678,"x_min":0,"x_max":610,"o":"m 271 136 l 271 -271 l 0 -271 l 0 136 l 271 136 m 610 136 l 610 -271 l 339 -271 l 339 136 l 610 136 z "},"•":{"ha":407,"x_min":0,"x_max":339,"o":"m 170 678 q 290 629 240 678 q 339 509 339 579 q 290 389 339 438 q 170 339 240 339 q 50 389 99 339 q 0 509 0 438 q 50 629 0 579 q 170 678 99 678 z "},"…":{"ha":1220,"x_min":0,"x_max":1152,"o":"m 170 339 q 290 290 240 339 q 339 170 339 240 q 290 50 339 99 q 170 0 240 0 q 50 50 99 0 q 0 170 0 99 q 50 290 0 240 q 170 339 99 339 m 578 339 q 698 290 648 339 q 747 170 747 240 q 698 50 747 99 q 578 0 648 0 q 458 50 507 0 q 408 170 408 99 q 458 290 408 240 q 578 339 507 339 m 983 339 q 1103 290 1053 339 q 1152 170 1152 240 q 1103 50 1152 99 q 983 0 1053 0 q 863 50 912 0 q 813 170 813 99 q 863 290 813 240 q 983 339 912 339 z "},"‹":{"ha":814,"x_min":0,"x_max":746,"o":"m 0 610 l 746 949 l 746 678 l 271 475 l 746 271 l 746 0 l 0 339 l 0 610 z "},"›":{"ha":814,"x_min":0,"x_max":746,"o":"m 746 339 l 0 0 l 0 271 l 475 475 l 0 678 l 0 949 l 746 610 l 746 339 z "},"€":{"ha":949,"x_min":0,"x_max":882,"o":"m 475 610 l 475 339 l 407 339 l 407 271 l 543 271 l 543 339 l 882 339 l 882 271 q 610 0 882 0 l 339 0 q 68 271 68 0 l 68 339 l 0 339 l 0 610 l 475 610 m 68 678 q 339 949 68 949 l 610 949 q 882 678 882 949 l 882 610 l 543 610 l 543 678 l 68 678 z "},"™":{"ha":796,"x_min":0,"x_max":728,"o":"m 205 853 l 205 610 l 109 610 l 109 853 l 0 853 l 0 950 l 315 950 l 315 853 l 205 853 m 728 950 l 728 610 l 631 610 l 631 772 l 583 610 l 486 610 l 437 772 l 437 610 l 340 610 l 340 950 l 461 950 l 534 756 l 607 950 l 728 950 z "},"−":{"ha":746,"x_min":0,"x_max":678,"o":"m 678 610 l 678 339 l 0 339 l 0 610 l 678 610 z "},"À":{"ha":882,"x_min":0,"x_max":814,"o":"m 407 509 q 475 610 475 543 l 475 678 l 0 678 q 271 949 0 949 l 543 949 q 814 678 814 949 l 814 0 l 475 0 l 475 203 l 339 136 l 339 0 l 0 0 l 0 610 l 339 610 l 339 475 l 407 509 m 271 1017 l 136 1289 l 407 1289 l 543 1017 l 271 1017 z "},"Á":{"ha":882,"x_min":0,"x_max":814,"o":"m 407 509 q 475 610 475 543 l 475 678 l 0 678 q 271 949 0 949 l 543 949 q 814 678 814 949 l 814 0 l 475 0 l 475 203 l 339 136 l 339 0 l 0 0 l 0 610 l 339 610 l 339 475 l 407 509 m 543 1017 l 271 1017 l 407 1289 l 678 1289 l 543 1017 z "},"Â":{"ha":882,"x_min":0,"x_max":814,"o":"m 407 509 q 475 610 475 543 l 475 678 l 0 678 q 271 949 0 949 l 543 949 q 814 678 814 949 l 814 0 l 475 0 l 475 203 l 339 136 l 339 0 l 0 0 l 0 610 l 339 610 l 339 475 l 407 509 m 543 1289 l 746 1017 l 475 1017 l 407 1119 l 339 1017 l 68 1017 l 271 1289 l 543 1289 z "},"Ã":{"ha":882,"x_min":0,"x_max":814,"o":"m 407 509 q 475 610 475 543 l 475 678 l 0 678 q 271 949 0 949 l 543 949 q 814 678 814 949 l 814 0 l 475 0 l 475 203 l 339 136 l 339 0 l 0 0 l 0 610 l 339 610 l 339 475 l 407 509 m 136 1040 l 136 1221 q 285 1255 217 1255 q 407 1221 353 1255 q 486 1198 444 1198 q 678 1289 570 1198 l 678 1107 q 486 1017 570 1017 q 407 1040 444 1017 q 285 1074 353 1074 q 136 1040 217 1074 z "},"Ä":{"ha":882,"x_min":0,"x_max":814,"o":"m 407 509 q 475 610 475 543 l 475 678 l 0 678 q 271 949 0 949 l 543 949 q 814 678 814 949 l 814 0 l 475 0 l 475 203 l 339 136 l 339 0 l 0 0 l 0 610 l 339 610 l 339 475 l 407 509 m 237 1017 q 141 1057 181 1017 q 102 1153 102 1097 q 141 1249 102 1209 q 237 1289 181 1289 q 333 1249 294 1289 q 373 1153 373 1209 q 333 1057 373 1097 q 237 1017 294 1017 m 576 1017 q 480 1057 520 1017 q 441 1153 441 1097 q 480 1249 441 1209 q 576 1289 520 1289 q 672 1249 633 1289 q 712 1153 712 1209 q 672 1057 712 1097 q 576 1017 633 1017 z "},"Å":{"ha":882,"x_min":0,"x_max":814,"o":"m 407 509 q 475 610 475 543 l 475 678 l 0 678 q 271 949 0 949 l 543 949 q 814 678 814 949 l 814 0 l 475 0 l 475 203 l 339 136 l 339 0 l 0 0 l 0 610 l 339 610 l 339 475 l 407 509 m 527 1307 q 576 1187 576 1257 q 527 1067 576 1116 q 407 1017 477 1017 q 287 1067 336 1017 q 237 1187 237 1116 q 287 1307 237 1257 q 407 1356 336 1356 q 527 1307 477 1356 m 409 1120 q 457 1140 437 1120 q 477 1188 477 1160 q 457 1236 477 1216 q 409 1256 437 1256 q 361 1236 381 1256 q 341 1188 341 1216 q 361 1140 341 1160 q 409 1120 381 1120 z "},"Æ":{"ha":1221,"x_min":0,"x_max":1153,"o":"m 475 678 l 0 678 q 271 949 0 949 l 1153 949 l 1153 678 l 814 678 l 814 610 l 1017 610 l 1017 339 l 814 339 l 814 271 l 1153 271 l 1153 0 l 475 0 l 475 203 l 339 136 l 339 0 l 0 0 l 0 610 l 339 610 l 339 475 l 407 509 q 475 610 475 543 l 475 678 z "},"Ç":{"ha":746,"x_min":0,"x_max":678,"o":"m 0 678 q 271 949 0 949 l 678 949 l 678 678 l 0 678 m 339 0 l 271 0 q 0 271 0 0 l 0 610 l 339 610 l 339 271 l 678 271 l 678 0 l 407 0 l 407 -68 q 475 -170 475 -68 q 271 -271 475 -271 l 271 -203 q 407 -170 407 -203 q 339 -136 407 -136 l 339 0 z "},"È":{"ha":746,"x_min":0,"x_max":678,"o":"m 0 678 l 0 949 l 678 949 l 678 678 l 0 678 m 543 610 l 543 339 l 339 339 l 339 271 l 678 271 l 678 0 l 0 0 l 0 610 l 543 610 m 203 1017 l 68 1289 l 339 1289 l 475 1017 l 203 1017 z "},"É":{"ha":746,"x_min":0,"x_max":678,"o":"m 0 678 l 0 949 l 678 949 l 678 678 l 0 678 m 543 610 l 543 339 l 339 339 l 339 271 l 678 271 l 678 0 l 0 0 l 0 610 l 543 610 m 475 1017 l 203 1017 l 339 1289 l 610 1289 l 475 1017 z "},"Ê":{"ha":746,"x_min":0,"x_max":678,"o":"m 0 678 l 0 949 l 678 949 l 678 678 l 0 678 m 543 610 l 543 339 l 339 339 l 339 271 l 678 271 l 678 0 l 0 0 l 0 610 l 543 610 m 475 1289 l 678 1017 l 407 1017 l 339 1119 l 271 1017 l 0 1017 l 203 1289 l 475 1289 z "},"Ë":{"ha":746,"x_min":0,"x_max":678,"o":"m 0 678 l 0 949 l 678 949 l 678 678 l 0 678 m 543 610 l 543 339 l 339 339 l 339 271 l 678 271 l 678 0 l 0 0 l 0 610 l 543 610 m 170 1017 q 74 1057 113 1017 q 34 1153 34 1097 q 74 1249 34 1209 q 170 1289 113 1289 q 266 1249 226 1289 q 305 1153 305 1209 q 266 1057 305 1097 q 170 1017 226 1017 m 509 1017 q 413 1057 452 1017 q 373 1153 373 1097 q 413 1249 373 1209 q 509 1289 452 1289 q 605 1249 565 1289 q 644 1153 644 1209 q 605 1057 644 1097 q 509 1017 565 1017 z "},"Ì":{"ha":407,"x_min":-102,"x_max":339,"o":"m 0 678 l 0 949 l 339 949 l 339 678 l 0 678 m 339 610 l 339 0 l 0 0 l 0 610 l 339 610 m 34 1017 l -102 1289 l 170 1289 l 305 1017 l 34 1017 z "},"Í":{"ha":407,"x_min":0,"x_max":441,"o":"m 0 678 l 0 949 l 339 949 l 339 678 l 0 678 m 339 610 l 339 0 l 0 0 l 0 610 l 339 610 m 305 1017 l 34 1017 l 170 1289 l 441 1289 l 305 1017 z "},"Î":{"ha":407,"x_min":-170,"x_max":509,"o":"m 0 678 l 0 949 l 339 949 l 339 678 l 0 678 m 339 610 l 339 0 l 0 0 l 0 610 l 339 610 m 305 1289 l 509 1017 l 237 1017 l 170 1119 l 102 1017 l -170 1017 l 34 1289 l 305 1289 z "},"Ï":{"ha":407,"x_min":-136,"x_max":475,"o":"m 0 678 l 0 949 l 339 949 l 339 678 l 0 678 m 339 610 l 339 0 l 0 0 l 0 610 l 339 610 m 0 1017 q -96 1057 -56 1017 q -136 1153 -136 1097 q -96 1249 -136 1209 q 0 1289 -56 1289 q 96 1249 56 1289 q 136 1153 136 1209 q 96 1057 136 1097 q 0 1017 56 1017 m 339 1017 q 243 1057 283 1017 q 203 1153 203 1097 q 243 1249 203 1209 q 339 1289 283 1289 q 435 1249 395 1289 q 475 1153 475 1209 q 435 1057 475 1097 q 339 1017 395 1017 z "},"Ð":{"ha":1017,"x_min":0,"x_max":949,"o":"m 610 678 l 136 678 l 136 949 l 678 949 q 949 678 949 949 l 949 271 q 678 0 949 0 l 136 0 l 136 339 l 0 339 l 0 610 l 543 610 l 543 339 l 475 339 l 475 271 l 610 271 l 610 678 z "},"Ñ":{"ha":882,"x_min":0,"x_max":814,"o":"m 0 678 q 271 949 0 949 l 543 949 q 814 678 814 949 l 814 0 l 475 0 l 475 678 l 0 678 m 339 610 l 339 0 l 0 0 l 0 610 l 339 610 m 136 1040 l 136 1221 q 285 1255 217 1255 q 407 1221 353 1255 q 486 1198 444 1198 q 678 1289 570 1198 l 678 1107 q 486 1017 570 1017 q 407 1040 444 1017 q 285 1074 353 1074 q 136 1040 217 1074 z "},"Ò":{"ha":882,"x_min":0,"x_max":814,"o":"m 0 678 q 271 949 0 949 l 543 949 q 814 678 814 949 l 814 271 q 543 0 814 0 l 271 0 q 0 271 0 0 l 0 610 l 339 610 l 339 271 l 475 271 l 475 678 l 0 678 m 271 1017 l 136 1289 l 407 1289 l 543 1017 l 271 1017 z "},"Ó":{"ha":882,"x_min":0,"x_max":814,"o":"m 0 678 q 271 949 0 949 l 543 949 q 814 678 814 949 l 814 271 q 543 0 814 0 l 271 0 q 0 271 0 0 l 0 610 l 339 610 l 339 271 l 475 271 l 475 678 l 0 678 m 543 1017 l 271 1017 l 407 1289 l 678 1289 l 543 1017 z "},"Ô":{"ha":882,"x_min":0,"x_max":814,"o":"m 0 678 q 271 949 0 949 l 543 949 q 814 678 814 949 l 814 271 q 543 0 814 0 l 271 0 q 0 271 0 0 l 0 610 l 339 610 l 339 271 l 475 271 l 475 678 l 0 678 m 543 1289 l 746 1017 l 475 1017 l 407 1119 l 339 1017 l 68 1017 l 271 1289 l 543 1289 z "},"Õ":{"ha":882,"x_min":0,"x_max":814,"o":"m 0 678 q 271 949 0 949 l 543 949 q 814 678 814 949 l 814 271 q 543 0 814 0 l 271 0 q 0 271 0 0 l 0 610 l 339 610 l 339 271 l 475 271 l 475 678 l 0 678 m 136 1040 l 136 1221 q 285 1255 217 1255 q 407 1221 353 1255 q 486 1198 444 1198 q 678 1289 570 1198 l 678 1107 q 486 1017 570 1017 q 407 1040 444 1017 q 285 1074 353 1074 q 136 1040 217 1074 z "},"Ö":{"ha":882,"x_min":0,"x_max":814,"o":"m 0 678 q 271 949 0 949 l 543 949 q 814 678 814 949 l 814 271 q 543 0 814 0 l 271 0 q 0 271 0 0 l 0 610 l 339 610 l 339 271 l 475 271 l 475 678 l 0 678 m 237 1017 q 141 1057 181 1017 q 102 1153 102 1097 q 141 1249 102 1209 q 237 1289 181 1289 q 333 1249 294 1289 q 373 1153 373 1209 q 333 1057 373 1097 q 237 1017 294 1017 m 576 1017 q 480 1057 520 1017 q 441 1153 441 1097 q 480 1249 441 1209 q 576 1289 520 1289 q 672 1249 633 1289 q 712 1153 712 1209 q 672 1057 712 1097 q 576 1017 633 1017 z "},"×":{"ha":882,"x_min":-68,"x_max":882,"o":"m 675 610 l 593 475 l 882 0 l 509 0 l 407 168 l 305 0 l -68 0 l 220 475 l 138 610 l 675 610 m 97 678 l -68 949 l 305 949 l 407 782 l 509 949 l 882 949 l 717 678 l 97 678 z "},"Ø":{"ha":882,"x_min":0,"x_max":814,"o":"m 475 475 l 347 271 l 475 271 l 475 475 m 467 678 l 0 678 q 271 949 0 949 l 543 949 q 631 941 591 949 l 678 1017 l 814 1017 l 735 892 q 814 678 814 824 l 814 271 q 543 0 814 0 l 271 0 q 183 9 223 0 l 136 -68 l 0 -68 l 79 58 q 0 271 0 125 l 0 610 l 339 610 l 339 475 l 467 678 z "},"Ù":{"ha":882,"x_min":0,"x_max":814,"o":"m 339 610 l 339 271 l 475 271 l 475 949 l 814 949 l 814 271 q 543 0 814 0 l 271 0 q 0 271 0 0 l 0 610 l 339 610 m 0 678 l 0 949 l 339 949 l 339 678 l 0 678 m 271 1017 l 136 1289 l 407 1289 l 543 1017 l 271 1017 z "},"Ú":{"ha":882,"x_min":0,"x_max":814,"o":"m 339 610 l 339 271 l 475 271 l 475 949 l 814 949 l 814 271 q 543 0 814 0 l 271 0 q 0 271 0 0 l 0 610 l 339 610 m 0 678 l 0 949 l 339 949 l 339 678 l 0 678 m 543 1017 l 271 1017 l 407 1289 l 678 1289 l 543 1017 z "},"Û":{"ha":882,"x_min":0,"x_max":814,"o":"m 339 610 l 339 271 l 475 271 l 475 949 l 814 949 l 814 271 q 543 0 814 0 l 271 0 q 0 271 0 0 l 0 610 l 339 610 m 0 678 l 0 949 l 339 949 l 339 678 l 0 678 m 543 1289 l 746 1017 l 475 1017 l 407 1119 l 339 1017 l 68 1017 l 271 1289 l 543 1289 z "},"Ü":{"ha":882,"x_min":0,"x_max":814,"o":"m 339 610 l 339 271 l 475 271 l 475 949 l 814 949 l 814 271 q 543 0 814 0 l 271 0 q 0 271 0 0 l 0 610 l 339 610 m 0 678 l 0 949 l 339 949 l 339 678 l 0 678 m 237 1017 q 141 1057 181 1017 q 102 1153 102 1097 q 141 1249 102 1209 q 237 1289 181 1289 q 333 1249 294 1289 q 373 1153 373 1209 q 333 1057 373 1097 q 237 1017 294 1017 m 576 1017 q 480 1057 520 1017 q 441 1153 441 1097 q 480 1249 441 1209 q 576 1289 520 1289 q 672 1249 633 1289 q 712 1153 712 1209 q 672 1057 712 1097 q 576 1017 633 1017 z "},"Ý":{"ha":882,"x_min":0,"x_max":814,"o":"m 0 678 l 0 949 l 339 949 l 339 678 l 0 678 m 814 0 l 475 0 l 475 136 l 191 259 q 0 543 0 360 l 0 610 l 339 610 q 407 509 339 543 l 475 475 l 475 949 l 814 949 l 814 0 m 543 1017 l 271 1017 l 407 1289 l 678 1289 l 543 1017 z "},"Þ":{"ha":882,"x_min":0,"x_max":814,"o":"m 339 407 l 407 441 q 475 543 475 475 l 475 610 l 339 610 l 339 407 m 339 882 l 543 882 q 814 610 814 882 l 814 475 q 576 170 814 271 l 339 68 l 339 -68 l 0 -68 l 0 1017 l 339 1017 l 339 882 z "},"ß":{"ha":882,"x_min":0,"x_max":814,"o":"m 0 678 l 0 949 l 543 949 q 814 678 814 949 q 678 475 814 543 q 814 271 814 407 q 585 -34 814 -34 q 407 0 509 -34 l 407 271 l 475 271 l 475 339 l 339 339 l 339 0 l 0 0 l 0 610 l 475 610 l 475 678 l 0 678 z "},"à":{"ha":882,"x_min":0,"x_max":814,"o":"m 407 509 q 475 610 475 543 l 475 678 l 0 678 q 271 949 0 949 l 543 949 q 814 678 814 949 l 814 0 l 475 0 l 475 203 l 339 136 l 339 0 l 0 0 l 0 610 l 339 610 l 339 475 l 407 509 m 271 1017 l 136 1289 l 407 1289 l 543 1017 l 271 1017 z "},"á":{"ha":882,"x_min":0,"x_max":814,"o":"m 407 509 q 475 610 475 543 l 475 678 l 0 678 q 271 949 0 949 l 543 949 q 814 678 814 949 l 814 0 l 475 0 l 475 203 l 339 136 l 339 0 l 0 0 l 0 610 l 339 610 l 339 475 l 407 509 m 543 1017 l 271 1017 l 407 1289 l 678 1289 l 543 1017 z "},"â":{"ha":882,"x_min":0,"x_max":814,"o":"m 407 509 q 475 610 475 543 l 475 678 l 0 678 q 271 949 0 949 l 543 949 q 814 678 814 949 l 814 0 l 475 0 l 475 203 l 339 136 l 339 0 l 0 0 l 0 610 l 339 610 l 339 475 l 407 509 m 543 1289 l 746 1017 l 475 1017 l 407 1119 l 339 1017 l 68 1017 l 271 1289 l 543 1289 z "},"ã":{"ha":882,"x_min":0,"x_max":814,"o":"m 407 509 q 475 610 475 543 l 475 678 l 0 678 q 271 949 0 949 l 543 949 q 814 678 814 949 l 814 0 l 475 0 l 475 203 l 339 136 l 339 0 l 0 0 l 0 610 l 339 610 l 339 475 l 407 509 m 136 1040 l 136 1221 q 285 1255 217 1255 q 407 1221 353 1255 q 486 1198 444 1198 q 678 1289 570 1198 l 678 1107 q 486 1017 570 1017 q 407 1040 444 1017 q 285 1074 353 1074 q 136 1040 217 1074 z "},"ä":{"ha":882,"x_min":0,"x_max":814,"o":"m 407 509 q 475 610 475 543 l 475 678 l 0 678 q 271 949 0 949 l 543 949 q 814 678 814 949 l 814 0 l 475 0 l 475 203 l 339 136 l 339 0 l 0 0 l 0 610 l 339 610 l 339 475 l 407 509 m 237 1017 q 141 1057 181 1017 q 102 1153 102 1097 q 141 1249 102 1209 q 237 1289 181 1289 q 333 1249 294 1289 q 373 1153 373 1209 q 333 1057 373 1097 q 237 1017 294 1017 m 576 1017 q 480 1057 520 1017 q 441 1153 441 1097 q 480 1249 441 1209 q 576 1289 520 1289 q 672 1249 633 1289 q 712 1153 712 1209 q 672 1057 712 1097 q 576 1017 633 1017 z "},"å":{"ha":882,"x_min":0,"x_max":814,"o":"m 407 509 q 475 610 475 543 l 475 678 l 0 678 q 271 949 0 949 l 543 949 q 814 678 814 949 l 814 0 l 475 0 l 475 203 l 339 136 l 339 0 l 0 0 l 0 610 l 339 610 l 339 475 l 407 509 m 527 1307 q 576 1187 576 1257 q 527 1067 576 1116 q 407 1017 477 1017 q 287 1067 336 1017 q 237 1187 237 1116 q 287 1307 237 1257 q 407 1356 336 1356 q 527 1307 477 1356 m 409 1120 q 457 1140 437 1120 q 477 1188 477 1160 q 457 1236 477 1216 q 409 1256 437 1256 q 361 1236 381 1256 q 341 1188 341 1216 q 361 1140 341 1160 q 409 1120 381 1120 z "},"æ":{"ha":1322,"x_min":0,"x_max":1255,"o":"m 814 678 l 814 610 l 1119 610 l 1119 339 l 916 339 l 916 271 l 1255 271 l 1255 0 l 475 0 l 475 203 l 339 136 l 339 0 l 0 0 l 0 610 l 339 610 l 339 475 l 407 509 q 475 610 475 543 l 475 678 l 0 678 q 271 949 0 949 l 543 949 q 576 948 560 949 l 576 949 l 1255 949 l 1255 678 l 814 678 z "},"ç":{"ha":746,"x_min":0,"x_max":678,"o":"m 0 678 q 271 949 0 949 l 678 949 l 678 678 l 0 678 m 339 0 l 271 0 q 0 271 0 0 l 0 610 l 339 610 l 339 271 l 678 271 l 678 0 l 407 0 l 407 -68 q 475 -170 475 -68 q 271 -271 475 -271 l 271 -203 q 407 -170 407 -203 q 339 -136 407 -136 l 339 0 z "},"è":{"ha":746,"x_min":0,"x_max":678,"o":"m 0 678 l 0 949 l 678 949 l 678 678 l 0 678 m 543 610 l 543 339 l 339 339 l 339 271 l 678 271 l 678 0 l 0 0 l 0 610 l 543 610 m 203 1017 l 68 1289 l 339 1289 l 475 1017 l 203 1017 z "},"é":{"ha":746,"x_min":0,"x_max":678,"o":"m 0 678 l 0 949 l 678 949 l 678 678 l 0 678 m 543 610 l 543 339 l 339 339 l 339 271 l 678 271 l 678 0 l 0 0 l 0 610 l 543 610 m 475 1017 l 203 1017 l 339 1289 l 610 1289 l 475 1017 z "},"ê":{"ha":746,"x_min":0,"x_max":678,"o":"m 0 678 l 0 949 l 678 949 l 678 678 l 0 678 m 543 610 l 543 339 l 339 339 l 339 271 l 678 271 l 678 0 l 0 0 l 0 610 l 543 610 m 475 1289 l 678 1017 l 407 1017 l 339 1119 l 271 1017 l 0 1017 l 203 1289 l 475 1289 z "},"ë":{"ha":746,"x_min":0,"x_max":678,"o":"m 0 678 l 0 949 l 678 949 l 678 678 l 0 678 m 543 610 l 543 339 l 339 339 l 339 271 l 678 271 l 678 0 l 0 0 l 0 610 l 543 610 m 170 1017 q 74 1057 113 1017 q 34 1153 34 1097 q 74 1249 34 1209 q 170 1289 113 1289 q 266 1249 226 1289 q 305 1153 305 1209 q 266 1057 305 1097 q 170 1017 226 1017 m 509 1017 q 413 1057 452 1017 q 373 1153 373 1097 q 413 1249 373 1209 q 509 1289 452 1289 q 605 1249 565 1289 q 644 1153 644 1209 q 605 1057 644 1097 q 509 1017 565 1017 z "},"ì":{"ha":407,"x_min":-102,"x_max":339,"o":"m 0 678 l 0 949 l 339 949 l 339 678 l 0 678 m 34 1017 l -102 1356 l 170 1356 l 305 1017 l 34 1017 m 339 610 l 339 0 l 0 0 l 0 610 l 339 610 z "},"í":{"ha":407,"x_min":0,"x_max":441,"o":"m 0 678 l 0 949 l 339 949 l 339 678 l 0 678 m 305 1017 l 34 1017 l 170 1356 l 441 1356 l 305 1017 m 339 610 l 339 0 l 0 0 l 0 610 l 339 610 z "},"î":{"ha":407,"x_min":-170,"x_max":509,"o":"m 0 678 l 0 949 l 339 949 l 339 678 l 0 678 m 373 1356 l 509 1017 l 237 1017 l 170 1187 l 102 1017 l -170 1017 l -34 1356 l 373 1356 m 339 610 l 339 0 l 0 0 l 0 610 l 339 610 z "},"ï":{"ha":407,"x_min":-203,"x_max":543,"o":"m 0 678 l 0 949 l 339 949 l 339 678 l 0 678 m 493 1307 q 543 1187 543 1257 q 493 1067 543 1116 q 373 1017 444 1017 q 253 1067 302 1017 q 203 1187 203 1116 q 253 1307 203 1257 q 373 1356 302 1356 q 493 1307 444 1356 m 86 1307 q 136 1187 136 1257 q 86 1067 136 1116 q -34 1017 37 1017 q -154 1067 -104 1017 q -203 1187 -203 1116 q -154 1307 -203 1257 q -34 1356 -104 1356 q 86 1307 37 1356 m 339 610 l 339 0 l 0 0 l 0 610 l 339 610 z "},"ð":{"ha":882,"x_min":0,"x_max":814,"o":"m 728 1085 q 814 780 814 926 l 814 271 q 543 0 814 0 l 271 0 q 0 271 0 0 l 0 610 l 339 610 l 339 271 l 475 271 l 475 678 l 0 678 q 271 949 0 949 l 543 949 q 678 926 622 949 q 610 1085 678 1001 l 475 1085 l 475 1153 l 572 1153 q 451 1289 530 1218 l 587 1289 q 688 1153 644 1219 l 814 1153 l 814 1085 l 728 1085 z "},"ñ":{"ha":882,"x_min":0,"x_max":814,"o":"m 0 678 q 271 949 0 949 l 543 949 q 814 678 814 949 l 814 0 l 475 0 l 475 678 l 0 678 m 339 610 l 339 0 l 0 0 l 0 610 l 339 610 m 136 1040 l 136 1221 q 285 1255 217 1255 q 407 1221 353 1255 q 486 1198 444 1198 q 678 1289 570 1198 l 678 1107 q 486 1017 570 1017 q 407 1040 444 1017 q 285 1074 353 1074 q 136 1040 217 1074 z "},"ò":{"ha":882,"x_min":0,"x_max":814,"o":"m 0 678 q 271 949 0 949 l 543 949 q 814 678 814 949 l 814 271 q 543 0 814 0 l 271 0 q 0 271 0 0 l 0 610 l 339 610 l 339 271 l 475 271 l 475 678 l 0 678 m 271 1017 l 136 1289 l 407 1289 l 543 1017 l 271 1017 z "},"ó":{"ha":882,"x_min":0,"x_max":814,"o":"m 0 678 q 271 949 0 949 l 543 949 q 814 678 814 949 l 814 271 q 543 0 814 0 l 271 0 q 0 271 0 0 l 0 610 l 339 610 l 339 271 l 475 271 l 475 678 l 0 678 m 543 1017 l 271 1017 l 407 1289 l 678 1289 l 543 1017 z "},"ô":{"ha":882,"x_min":0,"x_max":814,"o":"m 0 678 q 271 949 0 949 l 543 949 q 814 678 814 949 l 814 271 q 543 0 814 0 l 271 0 q 0 271 0 0 l 0 610 l 339 610 l 339 271 l 475 271 l 475 678 l 0 678 m 543 1289 l 746 1017 l 475 1017 l 407 1119 l 339 1017 l 68 1017 l 271 1289 l 543 1289 z "},"õ":{"ha":882,"x_min":0,"x_max":814,"o":"m 0 678 q 271 949 0 949 l 543 949 q 814 678 814 949 l 814 271 q 543 0 814 0 l 271 0 q 0 271 0 0 l 0 610 l 339 610 l 339 271 l 475 271 l 475 678 l 0 678 m 136 1040 l 136 1221 q 285 1255 217 1255 q 407 1221 353 1255 q 486 1198 444 1198 q 678 1289 570 1198 l 678 1107 q 486 1017 570 1017 q 407 1040 444 1017 q 285 1074 353 1074 q 136 1040 217 1074 z "},"ö":{"ha":882,"x_min":0,"x_max":814,"o":"m 0 678 q 271 949 0 949 l 543 949 q 814 678 814 949 l 814 271 q 543 0 814 0 l 271 0 q 0 271 0 0 l 0 610 l 339 610 l 339 271 l 475 271 l 475 678 l 0 678 m 237 1017 q 141 1057 181 1017 q 102 1153 102 1097 q 141 1249 102 1209 q 237 1289 181 1289 q 333 1249 294 1289 q 373 1153 373 1209 q 333 1057 373 1097 q 237 1017 294 1017 m 576 1017 q 480 1057 520 1017 q 441 1153 441 1097 q 480 1249 441 1209 q 576 1289 520 1289 q 672 1249 633 1289 q 712 1153 712 1209 q 672 1057 712 1097 q 576 1017 633 1017 z "},"ø":{"ha":882,"x_min":0,"x_max":814,"o":"m 475 475 l 347 271 l 475 271 l 475 475 m 467 678 l 0 678 q 271 949 0 949 l 543 949 q 631 941 591 949 l 678 1017 l 814 1017 l 735 892 q 814 678 814 824 l 814 271 q 543 0 814 0 l 271 0 q 183 9 223 0 l 136 -68 l 0 -68 l 79 58 q 0 271 0 125 l 0 610 l 339 610 l 339 475 l 467 678 z "},"ù":{"ha":882,"x_min":0,"x_max":814,"o":"m 339 610 l 339 271 l 475 271 l 475 949 l 814 949 l 814 271 q 543 0 814 0 l 271 0 q 0 271 0 0 l 0 610 l 339 610 m 0 678 l 0 949 l 339 949 l 339 678 l 0 678 m 271 1017 l 136 1289 l 407 1289 l 543 1017 l 271 1017 z "},"ú":{"ha":882,"x_min":0,"x_max":814,"o":"m 339 610 l 339 271 l 475 271 l 475 949 l 814 949 l 814 271 q 543 0 814 0 l 271 0 q 0 271 0 0 l 0 610 l 339 610 m 0 678 l 0 949 l 339 949 l 339 678 l 0 678 m 543 1017 l 271 1017 l 407 1289 l 678 1289 l 543 1017 z "},"û":{"ha":882,"x_min":0,"x_max":814,"o":"m 339 610 l 339 271 l 475 271 l 475 949 l 814 949 l 814 271 q 543 0 814 0 l 271 0 q 0 271 0 0 l 0 610 l 339 610 m 0 678 l 0 949 l 339 949 l 339 678 l 0 678 m 543 1289 l 746 1017 l 475 1017 l 407 1119 l 339 1017 l 68 1017 l 271 1289 l 543 1289 z "},"ü":{"ha":882,"x_min":0,"x_max":814,"o":"m 339 610 l 339 271 l 475 271 l 475 949 l 814 949 l 814 271 q 543 0 814 0 l 271 0 q 0 271 0 0 l 0 610 l 339 610 m 0 678 l 0 949 l 339 949 l 339 678 l 0 678 m 237 1017 q 141 1057 181 1017 q 102 1153 102 1097 q 141 1249 102 1209 q 237 1289 181 1289 q 333 1249 294 1289 q 373 1153 373 1209 q 333 1057 373 1097 q 237 1017 294 1017 m 576 1017 q 480 1057 520 1017 q 441 1153 441 1097 q 480 1249 441 1209 q 576 1289 520 1289 q 672 1249 633 1289 q 712 1153 712 1209 q 672 1057 712 1097 q 576 1017 633 1017 z "},"ý":{"ha":882,"x_min":0,"x_max":814,"o":"m 0 678 l 0 949 l 339 949 l 339 678 l 0 678 m 814 0 l 475 0 l 475 136 l 191 259 q 0 543 0 360 l 0 610 l 339 610 q 407 509 339 543 l 475 475 l 475 949 l 814 949 l 814 0 m 543 1017 l 271 1017 l 407 1289 l 678 1289 l 543 1017 z "},"þ":{"ha":882,"x_min":0,"x_max":814,"o":"m 339 407 l 407 441 q 475 543 475 475 l 475 610 l 339 610 l 339 407 m 339 882 l 543 882 q 814 610 814 882 l 814 475 q 576 170 814 271 l 339 68 l 339 -68 l 0 -68 l 0 1017 l 339 1017 l 339 882 z "},"ÿ":{"ha":882,"x_min":0,"x_max":814,"o":"m 0 678 l 0 949 l 339 949 l 339 678 l 0 678 m 814 0 l 475 0 l 475 136 l 191 259 q 0 543 0 360 l 0 610 l 339 610 q 407 509 339 543 l 475 475 l 475 949 l 814 949 l 814 0 m 237 1017 q 141 1057 181 1017 q 102 1153 102 1097 q 141 1249 102 1209 q 237 1289 181 1289 q 333 1249 294 1289 q 373 1153 373 1209 q 333 1057 373 1097 q 237 1017 294 1017 m 576 1017 q 480 1057 520 1017 q 441 1153 441 1097 q 480 1249 441 1209 q 576 1289 520 1289 q 672 1249 633 1289 q 712 1153 712 1209 q 672 1057 712 1097 q 576 1017 633 1017 z "},"ˊ":{"ha":475,"x_min":0,"x_max":407,"o":"m 271 1017 l 0 1017 l 136 1289 l 407 1289 l 271 1017 z "},"ˇ":{"ha":746,"x_min":0,"x_max":678,"o":"m 475 1017 l 203 1017 l 0 1289 l 271 1289 l 339 1187 l 407 1289 l 678 1289 l 475 1017 z "},"ˋ":{"ha":475,"x_min":0,"x_max":407,"o":"m 136 1017 l 0 1289 l 271 1289 l 407 1017 l 136 1017 z "},"˘":{"ha":746,"x_min":0,"x_max":678,"o":"m 339 1017 q 0 1356 68 1017 l 271 1356 q 339 1272 305 1272 q 407 1356 373 1272 l 678 1356 q 339 1017 610 1017 z "},"˙":{"ha":555,"x_min":0,"x_max":339,"o":"m 290 1307 q 339 1187 339 1257 q 290 1067 339 1116 q 170 1017 240 1017 q 50 1067 99 1017 q 0 1187 0 1116 q 50 1307 0 1257 q 170 1356 99 1356 q 290 1307 240 1356 z "},"˚":{"ha":555,"x_min":0,"x_max":339,"o":"m 290 1307 q 339 1187 339 1257 q 290 1067 339 1116 q 170 1017 240 1017 q 50 1067 99 1017 q 0 1187 0 1116 q 50 1307 0 1257 q 170 1356 99 1356 q 290 1307 240 1356 m 172 1120 q 219 1140 199 1120 q 239 1188 239 1160 q 219 1236 239 1216 q 172 1256 199 1256 q 124 1236 144 1256 q 104 1188 104 1216 q 124 1140 104 1160 q 172 1120 144 1120 z "},"˛":{"ha":339,"x_min":-68,"x_max":271,"o":"m 271 136 q 203 -68 203 34 q 271 -271 203 -170 l 0 -271 q -68 -68 -68 -170 q 0 136 -68 34 l 271 136 z "},"̈":{"ha":814,"x_min":68,"x_max":678,"o":"m 203 1017 q 107 1057 147 1017 q 68 1153 68 1097 q 107 1249 68 1209 q 203 1289 147 1289 q 299 1249 260 1289 q 339 1153 339 1209 q 299 1057 339 1097 q 203 1017 260 1017 m 543 1017 q 447 1057 486 1017 q 407 1153 407 1097 q 447 1249 407 1209 q 543 1289 486 1289 q 638 1249 599 1289 q 678 1153 678 1209 q 638 1057 678 1097 q 543 1017 599 1017 z "}}}
